<svg width="1436" height="289" viewBox="0 0 1436 289" fill="none" xmlns="http://www.w3.org/2000/svg">
<path fill-rule="evenodd" clip-rule="evenodd" d="M418.873 144.921L314 0L390.025 1.29775e-05L426.355 1.91791e-05L426.355 45.403L394.444 45.403L444.358 111.212L494.994 45.403L463.445 45.403L463.445 2.55104e-05L500.137 3.17737e-05L573.682 4.4328e-05L468.817 146.068L573.682 288.295H497.658H461.327V243.733H493.238L443.325 179.143L392.688 243.733L424.237 243.733L424.237 288.295L387.546 288.295H314L418.873 144.921Z" fill="url(#paint0_linear)"/>
<path d="M0 284.58L123.504 0H126.48L249.984 284.58H187.488L166.284 231.012H75.516L53.196 284.58H0ZM94.488 185.628H148.428L122.016 119.04L94.488 185.628Z" fill="#140932"/>
<path d="M678.25 10.788H732.19V284.58H678.25V10.788Z" fill="#140932"/>
<path d="M860.516 148.056C860.516 129.208 864.112 111.352 871.304 94.488C878.496 77.624 888.416 62.744 901.064 49.848C913.96 36.704 928.84 26.412 945.704 18.972C962.568 11.532 980.672 7.81201 1000.02 7.81201C1019.11 7.81201 1037.09 11.532 1053.96 18.972C1070.82 26.412 1085.7 36.704 1098.6 49.848C1111.74 62.744 1121.91 77.624 1129.1 94.488C1136.54 111.352 1140.26 129.208 1140.26 148.056C1140.26 167.4 1136.54 185.504 1129.1 202.368C1121.91 219.232 1111.74 234.112 1098.6 247.008C1085.7 259.656 1070.82 269.576 1053.96 276.768C1037.09 283.96 1019.11 287.556 1000.02 287.556C980.672 287.556 962.568 283.96 945.704 276.768C928.84 269.576 913.96 259.656 901.064 247.008C888.416 234.112 878.496 219.232 871.304 202.368C864.112 185.504 860.516 167.4 860.516 148.056ZM916.316 148.056C916.316 164.176 920.036 178.932 927.476 192.324C935.164 205.468 945.456 216.008 958.352 223.944C971.248 231.632 985.756 235.476 1001.88 235.476C1017.5 235.476 1031.51 231.632 1043.91 223.944C1056.56 216.008 1066.48 205.468 1073.67 192.324C1080.86 178.932 1084.46 164.176 1084.46 148.056C1084.46 131.44 1080.74 116.56 1073.3 103.416C1065.86 90.024 1055.82 79.484 1043.17 71.796C1030.52 63.86 1016.26 59.892 1000.39 59.892C984.516 59.892 970.256 63.86 957.608 71.796C944.96 79.484 934.916 90.024 927.476 103.416C920.036 116.56 916.316 131.44 916.316 148.056Z" fill="#140932"/>
<path d="M1414.63 77.004C1404.22 71.3 1393.55 66.588 1382.64 62.868C1371.98 59.148 1361.93 57.288 1352.51 57.288C1340.85 57.288 1331.68 59.644 1324.98 64.356C1318.28 69.068 1314.94 76.136 1314.94 85.56C1314.94 92.008 1317.42 97.836 1322.38 103.044C1327.58 108.004 1334.16 112.468 1342.09 116.436C1350.28 120.404 1358.71 124 1367.39 127.224C1378.05 131.192 1388.34 136.276 1398.26 142.476C1408.18 148.428 1416.37 156.736 1422.82 167.4C1429.26 177.816 1432.49 191.704 1432.49 209.064C1432.49 222.952 1428.89 235.848 1421.7 247.752C1414.51 259.656 1403.97 269.328 1390.08 276.768C1376.19 283.96 1359.08 287.556 1338.74 287.556C1323.12 287.556 1307.12 285.2 1290.76 280.488C1274.64 275.776 1259.38 268.336 1245 258.168L1268.81 216.132C1278.23 223.076 1289.02 228.78 1301.17 233.244C1313.32 237.708 1324.24 239.94 1333.91 239.94C1340.36 239.94 1346.8 239.072 1353.25 237.336C1359.95 235.352 1365.4 232.128 1369.62 227.664C1374.08 223.2 1376.32 217 1376.32 209.064C1376.32 200.88 1372.35 193.812 1364.41 187.86C1356.72 181.66 1347.42 176.452 1336.51 172.236C1328.08 169.012 1319.4 165.292 1310.47 161.076C1301.54 156.86 1293.11 151.776 1285.18 145.824C1277.49 139.624 1271.16 132.06 1266.2 123.132C1261.49 113.956 1259.14 102.796 1259.14 89.652C1259.14 73.78 1262.61 60.016 1269.55 48.36C1276.74 36.704 1286.79 27.528 1299.68 20.832C1312.58 13.888 1327.46 10.044 1344.32 9.30001C1366.4 9.30001 1384.25 11.904 1397.89 17.112C1411.78 22.32 1424.18 28.52 1435.09 35.712L1414.63 77.004Z" fill="#140932"/>
<defs>
<linearGradient id="paint0_linear" x1="443.841" y1="0" x2="443.841" y2="288.295" gradientUnits="userSpaceOnUse">
<stop stop-color="#5A29E4"/>
<stop offset="1" stop-color="#BD00FF"/>
</linearGradient>
</defs>
</svg>
